<svg width="24" height="24" viewBox="0 0 24 24" fill="none" stroke-width="8" style="width:20px;height:20px;color:rgba(255,255,255,.65)">
  <path d="M22.792 15.178A3.68 3.68 0 0 1 20.96 12c0-1.308.697-2.518 1.833-3.178.196-.122.27-.366.147-.562l-2.041-3.52a.39.39 0 0 0-.342-.208.4.4 0 0 0-.208.061 3.74 3.74 0 0 1-1.834.49 3.7 3.7 0 0 1-1.857-.502 3.66 3.66 0 0 1-1.834-3.165A.41.41 0 0 0 14.42 1H9.58a.41.41 0 0 0-.403.416A3.66 3.66 0 0 1 7.343 4.58c-.574.33-1.21.501-1.857.501a3.74 3.74 0 0 1-1.834-.489.39.39 0 0 0-.55.147L1.05 8.26a.4.4 0 0 0-.05.196.43.43 0 0 0 .208.366 3.66 3.66 0 0 1 1.833 3.166c0 1.32-.697 2.53-1.821 3.19h-.012c-.196.122-.27.366-.147.562l2.041 3.52a.39.39 0 0 0 .342.208.4.4 0 0 0 .208-.061 3.72 3.72 0 0 1 3.691.012 3.67 3.67 0 0 1 1.821 3.165c0 .233.184.416.416.416h4.84a.41.41 0 0 0 .403-.416c0-1.307.697-2.505 1.834-3.165a3.7 3.7 0 0 1 1.857-.501c.636 0 1.271.17 1.834.489a.39.39 0 0 0 .55-.147l2.053-3.52a.4.4 0 0 0 .049-.196.43.43 0 0 0-.208-.366M12 15.667A3.66 3.66 0 0 1 8.333 12 3.66 3.66 0 0 1 12 8.333 3.66 3.66 0 0 1 15.667 12 3.66 3.66 0 0 1 12 15.667" fill="currentColor"/>
</svg>
